<svg width="512" height="384" viewBox="0 0 512 384" fill="none" xmlns="http://www.w3.org/2000/svg">
<path d="M458.667 384H53.3333C23.9147 384 0 360.085 0 330.667V53.3333C0 23.9147 23.9147 0 53.3333 0H170.667C173.504 0 176.213 1.13066 178.219 3.11466L217.749 42.6667H458.667C488.085 42.6667 512 66.5813 512 96V330.667C512 360.085 488.085 384 458.667 384ZM53.3333 21.3333C35.6907 21.3333 21.3333 35.6907 21.3333 53.3333V330.667C21.3333 348.309 35.6907 362.667 53.3333 362.667H458.667C476.309 362.667 490.667 348.309 490.667 330.667V96C490.667 78.3573 476.309 64 458.667 64H213.333C210.496 64 207.787 62.8693 205.781 60.8853L166.251 21.3333H53.3333Z" fill="black"/>
</svg>
