<svg width="455" height="385" viewBox="0 0 455 385" fill="none" xmlns="http://www.w3.org/2000/svg">
<path d="M419.967 127.004C398.073 105.276 367.446 89.8026 333.727 83.4336C329.658 82.6676 325.734 85.3416 324.965 89.4116C324.196 93.4816 326.872 97.4046 330.943 98.1736C395.154 110.302 440 154.928 440 206.696C440 249.332 409.648 287.652 360.79 306.702C358.296 307.675 356.509 309.903 356.102 312.549C353.138 331.799 357.184 351.39 367.071 367.71C345.483 361.944 327.997 345.377 321.196 322.928C320.168 319.534 316.894 317.318 313.369 317.631C308.072 318.091 302.733 318.325 297.5 318.325C250.841 318.325 207.044 300.325 180.343 270.174C177.598 267.073 172.858 266.785 169.756 269.531C166.655 272.277 166.367 277.017 169.113 280.118C198.617 313.434 246.613 333.325 297.5 333.325C301.238 333.325 305.024 333.215 308.813 332.997C314.25 347.02 323.603 359.505 335.585 368.601C349.66 379.286 366.436 384.933 384.097 384.933C387.124 384.933 389.854 383.113 391.019 380.319C392.184 377.525 391.555 374.305 389.425 372.154C375.595 358.193 368.65 338.579 370.42 318.985C394.64 308.817 415.176 293.752 430.014 275.225C446.36 254.816 455 231.12 455 206.696C455 177.727 442.559 149.425 419.967 127.004Z" fill="black"/>
<path d="M315 126.696C315 92.5409 298.39 60.5399 268.229 36.5869C238.576 13.0369 199.251 0.0678711 157.5 0.0678711C115.746 0.0678711 76.42 13.0369 46.769 36.5869C16.609 60.5399 0 92.5409 0 126.696C0 151.12 8.64 174.817 24.985 195.225C39.823 213.751 60.36 228.817 84.579 238.985C86.349 258.579 79.404 278.193 65.574 292.154C63.444 294.304 62.815 297.525 63.98 300.319C65.145 303.113 67.876 304.933 70.902 304.933C88.564 304.933 105.339 299.286 119.414 288.601C131.396 279.506 140.749 267.02 146.186 252.997C149.975 253.215 153.761 253.325 157.499 253.325C199.251 253.325 238.576 240.356 268.228 216.806C298.39 192.852 315 160.851 315 126.696ZM141.631 237.63C138.095 237.321 134.832 239.532 133.804 242.927C127.003 265.375 109.518 281.942 87.929 287.708C97.816 271.389 101.862 251.797 98.898 232.547C98.491 229.901 96.704 227.673 94.21 226.7C45.352 207.652 15 169.332 15 126.696C15 65.1439 78.925 15.0679 157.5 15.0679C236.075 15.0679 300 65.1439 300 126.696C300 188.248 236.075 238.324 157.5 238.324C152.267 238.324 146.928 238.091 141.631 237.63Z" fill="black"/>
</svg>
